<svg id="Layer" enable-background="new 0 0 512 512" height="512" viewBox="0 0 512 512" width="512" xmlns="http://www.w3.org/2000/svg" fill="#fff"><path d="m504.971 239.029-56.971-56.97v-98.059c0-46.317-37.682-84-84-84h-44c-13.255 0-24 10.745-24 24s10.745 24 24 24h44c19.851 0 36 16.149 36 36v108c0 6.365 2.529 12.47 7.029 16.971l47.03 47.029-47.029 47.029c-4.501 4.501-7.03 10.606-7.03 16.971v108c0 19.851-16.149 36-36 36h-44c-13.255 0-24 10.745-24 24s10.745 24 24 24h44c46.318 0 84-37.683 84-84v-98.059l56.971-56.971c9.372-9.372 9.372-24.568 0-33.941z"/><path d="m112 192v-108c0-19.851 16.149-36 36-36h44c13.255 0 24-10.745 24-24s-10.745-24-24-24h-44c-46.318 0-84 37.683-84 84v98.059l-56.971 56.97c-9.373 9.373-9.373 24.568 0 33.941l56.971 56.971v98.059c0 46.317 37.682 84 84 84h44c13.255 0 24-10.745 24-24s-10.745-24-24-24h-44c-19.851 0-36-16.149-36-36v-108c0-6.365-2.529-12.47-7.029-16.971l-47.03-47.029 47.029-47.029c4.501-4.501 7.03-10.606 7.03-16.971z"/></svg>