<svg enable-background="new 0 0 64 64" height="512" viewBox="0 0 64 64" width="512" xmlns="http://www.w3.org/2000/svg"><g><path d="m19 40c1.104 0 2-.896 2-2s-.896-2-2-2c-3.86 0-7-3.14-7-7 0-1.873.728-3.628 2.059-4.95 1.313-1.322 3.068-2.05 4.941-2.05h10c3.86 0 7 3.14 7 7 0 .258-.015.509-.048.78-.174 1.574-.885 3.052-2.017 4.176-.532.54-1.137.974-1.797 1.289-.997.476-1.419 1.669-.944 2.666.476.996 1.669 1.419 2.667.943 1.08-.516 2.063-1.219 2.908-2.075 1.763-1.75 2.885-4.08 3.156-6.539.051-.413.075-.819.075-1.24 0-6.065-4.935-11-11-11h-10c-2.947 0-5.709 1.147-7.77 3.221-2.083 2.07-3.23 4.832-3.23 7.779 0 6.065 4.935 11 11 11z"/><path d="m45 28c-1.104 0-2 .896-2 2s.896 2 2 2c3.86 0 7 3.141 7 7 0 1.873-.728 3.628-2.059 4.95-1.313 1.322-3.068 2.05-4.941 2.05h-10c-3.86 0-7-3.141-7-7 0-.258.015-.509.048-.78.174-1.574.885-3.052 2.017-4.176.532-.54 1.136-.974 1.796-1.289.997-.476 1.419-1.67.944-2.667s-1.669-1.418-2.667-.944c-1.081.516-2.064 1.22-2.908 2.076-1.763 1.75-2.885 4.08-3.156 6.538-.05.415-.074.821-.074 1.242 0 6.065 4.935 11 11 11h10c2.946 0 5.709-1.147 7.77-3.221 2.083-2.07 3.23-4.833 3.23-7.779 0-6.065-4.935-11-11-11z"/></g></svg>
