<?xml version="1.0" encoding="UTF-8" standalone="no"?><!DOCTYPE svg PUBLIC "-//W3C//DTD SVG 1.1//EN" "http://www.w3.org/Graphics/SVG/1.1/DTD/svg11.dtd"><svg width="100%" height="100%" viewBox="0 0 32 32" version="1.1" xmlns="http://www.w3.org/2000/svg" xmlns:xlink="http://www.w3.org/1999/xlink" xml:space="preserve" xmlns:serif="http://www.serif.com/" style="fill-rule:evenodd;clip-rule:evenodd;stroke-linecap:round;stroke-linejoin:round;stroke-miterlimit:1.5;">
<metadata>
<rdf:RDF xmlns:cc="http://web.resource.org/cc/"
         xmlns:rdf="http://www.w3.org/1999/02/22-rdf-syntax-ns#"
         xmlns:dc = "http://purl.org/dc/elements/1.1/"
         >

     <rdf:Description rdf:about="">
       <dc:title>Mutant Standard emoji v0.3.1</dc:title>
     </rdf:Description>

    <cc:work rdf:about="">
        <cc:license rdf:resource="http://creativecommons.org/licenses/by-nc-sa/4.0/"/>
        <cc:attributionName>Dzuk</cc:attributionName>
        <cc:attributionURL>http://mutant.tech/</cc:attributionURL>
    </cc:work>

</rdf:RDF>
</metadata>
<g id="comp."><rect id="cannabis_leaf" x="0" y="0" width="32" height="32" style="fill:none;"/><clipPath id="_clip1"><rect id="cannabis_leaf1" serif:id="cannabis_leaf" x="0" y="0" width="32" height="32"/></clipPath><g clip-path="url(#_clip1)"><g id="Layer2"><path d="M16,22c0,0 -0.619,-1.239 -1.422,-2.845c-2.253,-4.504 -2.253,-9.806 0,-14.31c0.803,-1.606 1.422,-2.845 1.422,-2.845c0,0 0.619,1.239 1.422,2.845c2.253,4.504 2.253,9.806 0,14.31c-0.803,1.606 -1.422,2.845 -1.422,2.845Z" style="fill:none;stroke:#000;stroke-width:4px;"/><path d="M16,22c0,0 0.758,-1.517 1.615,-3.23c1.548,-3.096 4.059,-5.607 7.155,-7.155c1.713,-0.857 3.23,-1.615 3.23,-1.615c0,0 -0.758,1.517 -1.615,3.23c-1.548,3.096 -4.059,5.607 -7.155,7.155c-1.713,0.857 -3.23,1.615 -3.23,1.615Z" style="fill:none;stroke:#000;stroke-width:4px;"/><path d="M16,21c0,0 0,0 0,0c4.407,-2.203 9.593,-2.203 14,0c0,0 0,0 0,0c0,0 0,0 0,0c-4.407,2.203 -9.593,2.203 -14,0c0,0 0,0 0,0Z" style="fill:none;stroke:#000;stroke-width:4px;"/><path d="M16,22c0,0 0.653,0 1.528,0c2.741,0 5.246,1.549 6.472,4c0,0 0,0 0,0c0,0 -0.653,0 -1.528,0c-2.741,0 -5.246,-1.549 -6.472,-4c0,0 0,0 0,0Z" style="fill:none;stroke:#000;stroke-width:4px;"/><path d="M16,22c0,0 -0.653,0 -1.528,0c-2.741,0 -5.246,1.549 -6.472,4c0,0 0,0 0,0c0,0 0.653,0 1.528,0c2.741,0 5.246,-1.549 6.472,-4c0,0 0,0 0,0Z" style="fill:none;stroke:#000;stroke-width:4px;"/><path d="M2,21c0,0 0,0 0,0c4.407,-2.203 9.593,-2.203 14,0c0,0 0,0 0,0c0,0 0,0 0,0c-4.407,2.203 -9.593,2.203 -14,0c0,0 0,0 0,0Z" style="fill:none;stroke:#000;stroke-width:4px;"/><path d="M16,22c0,0 -0.758,-1.517 -1.615,-3.23c-1.548,-3.096 -4.059,-5.607 -7.155,-7.155c-1.713,-0.857 -3.23,-1.615 -3.23,-1.615c0,0 0.758,1.517 1.615,3.23c1.548,3.096 4.059,5.607 7.155,7.155c1.713,0.857 3.23,1.615 3.23,1.615Z" style="fill:none;stroke:#000;stroke-width:4px;"/><rect x="15" y="25" width="2" height="5" style="fill:none;stroke:#000;stroke-width:4px;stroke-linejoin:miter;"/></g><g id="Layer1"><path d="M16,22c0,0 -0.619,-1.239 -1.422,-2.845c-2.253,-4.504 -2.253,-9.806 0,-14.31c0.803,-1.606 1.422,-2.845 1.422,-2.845c0,0 0.619,1.239 1.422,2.845c2.253,4.504 2.253,9.806 0,14.31c-0.803,1.606 -1.422,2.845 -1.422,2.845Z" style="fill:#219555;"/><path d="M16,22c0,0 0.758,-1.517 1.615,-3.23c1.548,-3.096 4.059,-5.607 7.155,-7.155c1.713,-0.857 3.23,-1.615 3.23,-1.615c0,0 -0.758,1.517 -1.615,3.23c-1.548,3.096 -4.059,5.607 -7.155,7.155c-1.713,0.857 -3.23,1.615 -3.23,1.615Z" style="fill:#219555;"/><path d="M16,21c0,0 0,0 0,0c4.407,-2.203 9.593,-2.203 14,0c0,0 0,0 0,0c0,0 0,0 0,0c-4.407,2.203 -9.593,2.203 -14,0c0,0 0,0 0,0Z" style="fill:#219555;"/><path d="M16,22c0,0 0.653,0 1.528,0c2.741,0 5.246,1.549 6.472,4c0,0 0,0 0,0c0,0 -0.653,0 -1.528,0c-2.741,0 -5.246,-1.549 -6.472,-4c0,0 0,0 0,0Z" style="fill:#219555;"/><path d="M16,22c0,0 -0.653,0 -1.528,0c-2.741,0 -5.246,1.549 -6.472,4c0,0 0,0 0,0c0,0 0.653,0 1.528,0c2.741,0 5.246,-1.549 6.472,-4c0,0 0,0 0,0Z" style="fill:#219555;"/><path d="M2,21c0,0 0,0 0,0c4.407,-2.203 9.593,-2.203 14,0c0,0 0,0 0,0c0,0 0,0 0,0c-4.407,2.203 -9.593,2.203 -14,0c0,0 0,0 0,0Z" style="fill:#219555;"/><path d="M16,22c0,0 -0.758,-1.517 -1.615,-3.23c-1.548,-3.096 -4.059,-5.607 -7.155,-7.155c-1.713,-0.857 -3.23,-1.615 -3.23,-1.615c0,0 0.758,1.517 1.615,3.23c1.548,3.096 4.059,5.607 7.155,7.155c1.713,0.857 3.23,1.615 3.23,1.615Z" style="fill:#219555;"/><rect x="15" y="15" width="2" height="15" style="fill:#219555;"/></g><path d="M13,20l3,-3l3,3l0,3l-6,0l0,-3Z" style="fill:#219555;"/></g></g></svg>