<?xml version="1.0" encoding="UTF-8" standalone="no"?>
<!DOCTYPE svg PUBLIC "-//W3C//DTD SVG 1.1//EN" "http://www.w3.org/Graphics/SVG/1.1/DTD/svg11.dtd">
<svg width="100%" height="100%" viewBox="0 0 32 32" version="1.1" xmlns="http://www.w3.org/2000/svg" xmlns:xlink="http://www.w3.org/1999/xlink" xml:space="preserve" xmlns:serif="http://www.serif.com/" style="fill-rule:evenodd;clip-rule:evenodd;stroke-linejoin:round;stroke-miterlimit:1.41421;">
<metadata>
<rdf:RDF xmlns:cc="http://web.resource.org/cc/"
         xmlns:rdf="http://www.w3.org/1999/02/22-rdf-syntax-ns#"
         xmlns:dc = "http://purl.org/dc/elements/1.1/"
         >

     <rdf:Description rdf:about="">
       <dc:title>Mutant Standard emoji v0.3.1</dc:title>
     </rdf:Description>

    <cc:work rdf:about="">
        <cc:license rdf:resource="http://creativecommons.org/licenses/by-nc-sa/4.0/"/>
        <cc:attributionName>Dzuk</cc:attributionName>
        <cc:attributionURL>http://mutant.tech/</cc:attributionURL>
    </cc:work>

</rdf:RDF>
</metadata>

    <rect id="orc" x="0" y="0" width="32" height="32" style="fill:none;"/>
    <clipPath id="_clip1">
        <rect x="0" y="0" width="32" height="32"/>
    </clipPath>
    <g clip-path="url(#_clip1)">
        <g id="outline">
            <path d="M4.261,9.504c0.107,-0.506 0.246,-1.004 0.418,-1.492c0.578,-1.641 1.519,-3.15 2.735,-4.395c1.248,-1.279 2.781,-2.274 4.46,-2.888c0.839,-0.308 1.713,-0.52 2.6,-0.633c0.455,-0.058 0.913,-0.086 1.371,-0.095c0.156,-0.001 0.155,-0.001 0.31,0c0.458,0.009 0.916,0.037 1.371,0.095c0.887,0.113 1.761,0.325 2.6,0.633c1.679,0.614 3.212,1.609 4.46,2.888c1.216,1.245 2.157,2.754 2.735,4.395c0.172,0.488 0.311,0.986 0.418,1.492l3.953,-0.989c0.103,0.08 0.205,0.16 0.308,0.24c0,2.445 0.017,4.889 -0.001,7.333c-0.002,0.089 -0.005,0.176 -0.009,0.264c-0.031,0.465 -0.109,0.924 -0.242,1.37c-0.257,0.856 -0.706,1.651 -1.307,2.312c-0.254,0.28 -0.535,0.533 -0.835,0.762l-1.739,1.304c-0.051,0.335 -0.115,0.668 -0.194,0.998c-0.404,1.696 -1.181,3.298 -2.263,4.665c-0.479,0.606 -1.018,1.158 -1.6,1.664c-0.381,0.322 -0.765,0.639 -1.147,0.958c-0.235,0.191 -0.477,0.37 -0.732,0.532c-0.683,0.431 -1.441,0.743 -2.23,0.918c-0.447,0.099 -0.9,0.148 -1.358,0.163c-1.514,0.017 -3.029,0.002 -4.544,0.002c-0.353,-0.004 -0.704,-0.028 -1.053,-0.081c-0.749,-0.115 -1.477,-0.353 -2.15,-0.701c-0.393,-0.203 -0.761,-0.445 -1.111,-0.715l-0.749,1.497l-5.736,0l0,-10.745c-0.224,-0.169 -0.447,-0.339 -0.67,-0.508c-0.07,-0.055 -0.138,-0.11 -0.206,-0.167c-0.353,-0.303 -0.673,-0.64 -0.95,-1.015c-0.531,-0.719 -0.898,-1.555 -1.066,-2.432c-0.072,-0.372 -0.105,-0.748 -0.108,-1.126l0,-7.252l0.308,-0.24l3.953,0.989Z"/>
        </g>
        <g id="emoji">
            <path d="M5,30l2.5,0l2.5,-5l0,-12l-5,0l0,17Z" style="fill:#1c2c12;"/>
            <path d="M30,12.031l-2.393,7.764l-3.607,2.705l0,-10l6,-1.5l0,1.031Z" style="fill:#77b84c;"/>
            <path d="M30,12.031l0,3.969c0,1.259 -0.593,2.445 -1.6,3.2l-0.793,0.595c-0.378,-0.366 -0.607,-0.878 -0.607,-1.435l0,-5.579l3,-0.75Z" style="fill:#618e29;"/>
            <path d="M2,12.031l2.393,7.764l3.607,2.705l0,-10l-6,-1.5l0,1.031Z" style="fill:#77b84c;"/>
            <path d="M2,12.031l0,3.969c0,1.259 0.593,2.445 1.6,3.2l0.793,0.595c0.378,-0.366 0.607,-0.878 0.607,-1.435l0,-5.579l-3,-0.75Z" style="fill:#618e29;"/>
            <path d="M22.001,4c2.428,1.824 3.999,4.729 3.999,8c0,2.893 0,5.915 0,8.316c0,2.968 -1.318,5.783 -3.598,7.682c-0.356,0.297 -0.7,0.584 -1.011,0.843c-0.899,0.749 -2.032,1.159 -3.201,1.159c-1.309,0 -3.071,0 -4.38,0c-1.169,0 -2.302,-0.41 -3.201,-1.159c-0.311,-0.259 -0.655,-0.546 -1.011,-0.843c-2.28,-1.899 -3.598,-4.714 -3.598,-7.682l0,-8.222l0,-0.094l16,-8l0.001,0Z" style="fill:#77b84c;"/>
            <path d="M8.036,14.555c-0.204,-0.307 -0.223,-0.702 -0.049,-1.027c0.174,-0.325 0.513,-0.528 0.882,-0.528c1.034,0 2.28,0 3.131,0c0.552,0 1,0.448 1,1c0,0.322 0,0.678 0,1c0,0.552 -0.448,1 -1,1c-0.781,0 -1.837,0 -2.465,0c-0.334,0 -0.646,-0.167 -0.832,-0.445c-0.18,-0.271 -0.422,-0.633 -0.667,-1Zm15.928,0c0.204,-0.307 0.223,-0.702 0.049,-1.027c-0.174,-0.325 -0.513,-0.528 -0.882,-0.528c-1.034,0 -2.28,0 -3.131,0c-0.552,0 -1,0.448 -1,1c0,0.322 0,0.678 0,1c0,0.552 0.448,1 1,1c0.781,0 1.837,0 2.465,0c0.334,0 0.646,-0.167 0.832,-0.445c0.18,-0.271 0.422,-0.633 0.667,-1Z"/>
            <path d="M19.316,19.949c-0.709,0.236 -1.416,0.479 -2.128,0.708c-0.078,0.024 -0.155,0.045 -0.234,0.065c-0.47,0.111 -0.953,0.145 -1.434,0.087c-0.24,-0.029 -0.476,-0.082 -0.708,-0.152l-0.072,-0.023l-2.056,-0.685l0.632,-1.898c0.71,0.237 1.413,0.493 2.129,0.708c0.065,0.018 0.13,0.033 0.196,0.046c0.32,0.055 0.642,0.036 0.953,-0.058l0.043,-0.014l2.047,-0.682c0.211,0.633 0.421,1.265 0.632,1.898Z" style="fill:#456e17;fill-rule:nonzero;"/>
            <path d="M12,24l-3,0l1,-4l2,4Zm11,0l-1,-4l-2,4l3,0Z" style="fill:#fff;"/>
            <path d="M22.838,22.513l0.624,1.872l-0.014,0.008c-1.156,0.579 -2.307,1.17 -3.47,1.739c-0.179,0.083 -0.364,0.152 -0.556,0.2c-0.384,0.097 -0.781,0.113 -1.173,0.059c-0.716,-0.113 -1.426,-0.275 -2.146,-0.358c-0.083,-0.008 -0.166,-0.006 -0.248,0.005c-0.723,0.113 -1.441,0.26 -2.166,0.359c-0.177,0.02 -0.353,0.028 -0.53,0.019c-0.375,-0.019 -0.738,-0.111 -1.081,-0.261c-1.192,-0.553 -2.35,-1.173 -3.525,-1.761c-0.005,-0.002 -0.01,-0.005 -0.015,-0.008l0.624,-1.873c0.025,0.004 0.05,0.009 0.075,0.015c0.074,0.018 0.141,0.046 0.21,0.078c1.163,0.581 2.29,1.241 3.491,1.741c0.166,0.066 0.342,0.087 0.519,0.063c0.705,-0.111 1.406,-0.241 2.11,-0.351c0.29,-0.039 0.578,-0.039 0.867,0.001c0.723,0.113 1.438,0.289 2.166,0.36c0.179,0.014 0.355,-0.018 0.518,-0.094c1.15,-0.562 2.289,-1.147 3.434,-1.721c0.06,-0.028 0.075,-0.036 0.138,-0.057c0.049,-0.016 0.098,-0.027 0.148,-0.035Z" style="fill:#456e17;"/>
            <path d="M6,12c0,-5.523 4.477,-10 10,-10c0,0 0,0 0,0c2.251,0 4.329,0.744 6,1.999l0,1.93c0,1.326 -0.527,2.598 -1.464,3.535c-2.55,2.55 -7.536,7.536 -7.536,7.536l0,-6l-7,7l0,-5.969l0,-0.031Z" style="fill:#1c2c12;"/>
        </g>
    </g>
</svg>
