<?xml version="1.0" encoding="UTF-8" standalone="no"?><!DOCTYPE svg PUBLIC "-//W3C//DTD SVG 1.1//EN" "http://www.w3.org/Graphics/SVG/1.1/DTD/svg11.dtd"><svg width="100%" height="100%" viewBox="0 0 32 32" version="1.1" xmlns="http://www.w3.org/2000/svg" xmlns:xlink="http://www.w3.org/1999/xlink" xml:space="preserve" xmlns:serif="http://www.serif.com/" style="fill-rule:evenodd;clip-rule:evenodd;stroke-linecap:round;stroke-miterlimit:1.5;">
<metadata>
<rdf:RDF xmlns:cc="http://web.resource.org/cc/"
         xmlns:rdf="http://www.w3.org/1999/02/22-rdf-syntax-ns#"
         xmlns:dc = "http://purl.org/dc/elements/1.1/"
         >

     <rdf:Description rdf:about="">
       <dc:title>Mutant Standard emoji v0.3.1</dc:title>
     </rdf:Description>

    <cc:work rdf:about="">
        <cc:license rdf:resource="http://creativecommons.org/licenses/by-nc-sa/4.0/"/>
        <cc:attributionName>Dzuk</cc:attributionName>
        <cc:attributionURL>http://mutant.tech/</cc:attributionURL>
    </cc:work>

</rdf:RDF>
</metadata>
<rect id="v--paw-" serif:id="v [paw]" x="0" y="0" width="32" height="32" style="fill:none;"/><g id="outline"><path d="M11.23,8.501c-0.197,-0.804 -0.395,-1.607 -0.596,-2.41c-0.033,-0.142 -0.063,-0.284 -0.085,-0.428c-0.057,-0.385 -0.064,-0.776 -0.021,-1.163c0.125,-1.116 0.675,-2.163 1.523,-2.899c0.33,-0.287 0.703,-0.525 1.101,-0.704c0.355,-0.16 0.73,-0.273 1.113,-0.337c0.193,-0.031 0.385,-0.047 0.58,-0.057c0.146,-0.003 0.145,-0.003 0.291,-0.001c0.146,0.007 0.291,0.016 0.436,0.035c0.289,0.037 0.575,0.102 0.851,0.194c1.019,0.34 1.896,1.046 2.445,1.969c0.124,0.209 0.231,0.428 0.32,0.654c0.022,0.056 0.042,0.112 0.062,0.168c0.007,-0.021 0.015,-0.042 0.022,-0.064c0.108,-0.295 0.247,-0.579 0.413,-0.845c0.558,-0.891 1.427,-1.569 2.427,-1.894c0.249,-0.08 0.505,-0.139 0.765,-0.176c0.156,-0.021 0.312,-0.032 0.469,-0.04c0.157,-0.003 0.156,-0.003 0.314,0c0.157,0.008 0.313,0.019 0.469,0.041c0.415,0.059 0.821,0.176 1.204,0.346c1.009,0.45 1.83,1.273 2.279,2.282c0.17,0.383 0.287,0.79 0.345,1.205c0.058,0.414 0.057,0.837 -0.001,1.252c-0.022,0.156 -0.055,0.309 -0.09,0.462l-1.866,7.463l0,1.77c0.049,0.019 0.098,0.038 0.147,0.058c1.087,0.452 1.994,1.289 2.531,2.336c0.234,0.455 0.397,0.947 0.482,1.451c0.069,0.415 0.087,0.837 0.051,1.256c-0.016,0.188 -0.045,0.374 -0.08,0.56c-0.133,0.615 -0.279,1.228 -0.423,1.84c-0.094,0.378 -0.201,0.751 -0.329,1.118c-0.278,0.8 -0.64,1.57 -1.08,2.293c-0.755,1.24 -1.736,2.34 -2.881,3.232c-1.146,0.892 -2.454,1.574 -3.842,2.002c-0.77,0.237 -1.564,0.396 -2.365,0.474c-0.345,0.033 -0.69,0.05 -1.036,0.055l-0.125,0.001l-1.05,0l0,-0.004c-0.055,0 -0.11,0 -0.165,-0.001c-0.388,-0.006 -0.774,-0.026 -1.159,-0.067c-0.757,-0.081 -1.507,-0.233 -2.235,-0.454c-1.427,-0.433 -2.771,-1.131 -3.947,-2.048c-1.11,-0.867 -2.066,-1.926 -2.815,-3.118c-0.449,-0.716 -0.823,-1.479 -1.113,-2.272c-0.134,-0.364 -0.247,-0.734 -0.347,-1.108c-0.412,-1.608 -0.807,-3.221 -1.21,-4.832c-0.042,-0.178 -0.078,-0.357 -0.101,-0.539c-0.05,-0.409 -0.044,-0.824 0.018,-1.231c0.062,-0.407 0.18,-0.806 0.35,-1.181c0.475,-1.047 1.352,-1.887 2.419,-2.316c0.34,-0.137 0.696,-0.231 1.058,-0.282c0.009,-0.001 0.017,-0.002 0.025,-0.003c0.007,-0.069 0.016,-0.138 0.026,-0.206c0.062,-0.417 0.183,-0.824 0.357,-1.207c0.475,-1.039 1.345,-1.872 2.403,-2.301c0.351,-0.143 0.72,-0.24 1.095,-0.29c0.167,-0.023 0.335,-0.033 0.503,-0.039c0.028,0 0.05,0 0.068,0Z"/></g><g id="emoji"><path d="M7,15l2,-2l3,-2l2,-2l2,2l0,11l-9,0l0,-7Z" style="fill:#585858;"/><path d="M4.989,17.77c-0.013,-0.053 -0.027,-0.106 -0.04,-0.159c-0.023,-0.1 -0.043,-0.199 -0.056,-0.301c-0.025,-0.202 -0.025,-0.408 0,-0.61c0.079,-0.645 0.414,-1.245 0.922,-1.65c0.186,-0.148 0.393,-0.27 0.614,-0.36c0.188,-0.077 0.387,-0.131 0.589,-0.16c0.101,-0.015 0.202,-0.021 0.304,-0.026c0.103,0 0.102,0 0.204,0.005c0.239,0.019 0.471,0.062 0.697,0.143c0.403,0.146 0.763,0.395 1.042,0.717c-0.144,-0.588 -0.289,-1.176 -0.435,-1.763c-0.022,-0.092 -0.041,-0.184 -0.053,-0.278c-0.029,-0.219 -0.029,-0.442 0,-0.661c0.085,-0.628 0.412,-1.212 0.905,-1.611c0.172,-0.138 0.362,-0.254 0.564,-0.343c0.202,-0.09 0.416,-0.152 0.635,-0.185c0.093,-0.014 0.187,-0.021 0.282,-0.026c0.095,-0.002 0.094,-0.002 0.189,0c0.254,0.015 0.501,0.057 0.741,0.143c0.537,0.191 0.999,0.566 1.296,1.053c0.041,0.067 0.078,0.135 0.111,0.204l0.393,-0.902c-0.438,-1.798 -0.869,-3.598 -1.318,-5.394c-0.025,-0.106 -0.046,-0.212 -0.059,-0.321c-0.025,-0.217 -0.021,-0.437 0.011,-0.653c0.038,-0.252 0.114,-0.498 0.225,-0.727c0.256,-0.525 0.696,-0.95 1.23,-1.188c0.199,-0.089 0.41,-0.152 0.625,-0.186c0.109,-0.017 0.217,-0.025 0.326,-0.03c0.109,-0.001 0.109,-0.001 0.218,0.004c0.219,0.018 0.432,0.054 0.641,0.124c0.519,0.173 0.973,0.518 1.28,0.972c0.144,0.213 0.246,0.443 0.325,0.687c0.666,2.44 1.269,4.896 1.866,7.353l1.812,-7.247c0.062,-0.228 0.144,-0.445 0.263,-0.65c0.296,-0.509 0.771,-0.903 1.326,-1.1c0.223,-0.079 0.451,-0.12 0.687,-0.14c0.117,-0.004 0.117,-0.004 0.234,-0.003c0.104,0.006 0.13,0.006 0.234,0.019c0.232,0.03 0.46,0.093 0.675,0.186c0.216,0.094 0.417,0.217 0.598,0.367c0.485,0.4 0.805,0.979 0.887,1.603c0.03,0.232 0.028,0.469 -0.008,0.701c-0.015,0.103 -0.023,0.128 -0.046,0.229l-1.925,7.702l0,1.692l-1,1l1,1l0.229,0c0.914,0 1.778,0.417 2.348,1.132c0.569,0.716 0.781,1.652 0.575,2.543c-0.116,0.502 -0.238,1.032 -0.363,1.574c-1.047,4.537 -5.088,7.751 -9.744,7.751c-0.03,0 -0.807,-0.002 -1.189,-0.004c-0.961,-0.016 -1.915,-0.157 -2.835,-0.436c-1.192,-0.361 -2.314,-0.944 -3.296,-1.711c-0.927,-0.723 -1.727,-1.608 -2.352,-2.604c-0.548,-0.874 -0.953,-1.827 -1.219,-2.823c-0.208,-0.811 -0.411,-1.623 -0.613,-2.435c0.147,0.083 0.229,-0.503 0.229,-0.503c-0.224,-0.13 -0.65,-1.323 -0.736,-1.571c-0.015,-0.047 -0.03,-0.095 -0.045,-0.143Z" style="fill:#E5E5E5;"/><path d="M9,23.657c0,-1.061 0.421,-2.078 1.172,-2.829c0.819,-0.819 1.951,-1.951 3,-3c0.75,-0.75 1.767,-1.171 2.828,-1.171c1.061,0 2.078,0.421 2.828,1.171c1.943,1.943 4.172,4.172 4.172,4.172c0,0 0,0.985 0,2.158c0,0.923 -0.426,1.796 -1.154,2.364c-0.728,0.569 -1.677,0.77 -2.574,0.546c-0.917,-0.229 -1.782,-0.445 -2.294,-0.574c-0.318,-0.079 -0.643,-0.119 -0.97,-0.119c-0.005,0 -0.011,0 -0.016,0c-0.327,0 -0.652,0.04 -0.97,0.119c-0.512,0.129 -1.377,0.345 -2.294,0.574c-0.897,0.224 -1.846,0.023 -2.574,-0.546c-0.728,-0.568 -1.154,-1.441 -1.154,-2.364c0,-0.172 0,-0.34 0,-0.501Z" style="fill:#E49393;"/><path d="M13.523,9.477l5.74,2.164c0,0 -1.582,6.225 -5.263,9.359c-2.665,2.269 -7.735,1.84 -7.846,1.422c-0.41,-1.602 -0.803,-3.207 -1.205,-4.811c-0.023,-0.1 -0.043,-0.199 -0.056,-0.301c-0.025,-0.202 -0.025,-0.408 0,-0.61c0.079,-0.645 0.414,-1.245 0.922,-1.65c0.186,-0.148 0.393,-0.27 0.614,-0.36c0.188,-0.077 0.387,-0.131 0.589,-0.16c0.101,-0.015 0.202,-0.021 0.304,-0.026c0.09,0 0.101,0 0.171,0.003l1.273,-1.273l3.514,-2.514l1.243,-1.243Z" style="fill:none;"/><clipPath id="_clip1"><path d="M13.523,9.477l5.74,2.164c0,0 -1.582,6.225 -5.263,9.359c-2.665,2.269 -7.735,1.84 -7.846,1.422c-0.41,-1.602 -0.803,-3.207 -1.205,-4.811c-0.023,-0.1 -0.043,-0.199 -0.056,-0.301c-0.025,-0.202 -0.025,-0.408 0,-0.61c0.079,-0.645 0.414,-1.245 0.922,-1.65c0.186,-0.148 0.393,-0.27 0.614,-0.36c0.188,-0.077 0.387,-0.131 0.589,-0.16c0.101,-0.015 0.202,-0.021 0.304,-0.026c0.09,0 0.101,0 0.171,0.003l1.273,-1.273l3.514,-2.514l1.243,-1.243Z"/></clipPath><g clip-path="url(#_clip1)"><path d="M7.5,12c0,0 1.183,2.366 2.063,4.126c0.547,1.095 1.782,1.663 2.97,1.366c0.001,0 0.001,-0.001 0.002,-0.001c1.155,-0.288 1.965,-1.326 1.965,-2.516c0,-0.161 0,-0.313 0,-0.447c0,-0.35 -0.058,-0.697 -0.172,-1.027c-0.498,-1.44 -1.901,-5.501 -1.901,-5.501" style="fill:none;stroke:#585858;stroke-width:1px;"/><path d="M7.5,12c0,0 1.059,2.117 2.011,4.023c0.363,0.724 0.376,1.574 0.038,2.31c-0.338,0.735 -0.993,1.278 -1.778,1.474c-0.011,0.003 -0.021,0.005 -0.031,0.008c-1.378,0.344 -2.784,-0.449 -3.2,-1.806c-0.264,-0.858 -0.496,-1.613 -0.496,-1.613" style="fill:none;stroke:#585858;stroke-width:1px;"/></g><path d="M23.704,4.041c1.047,0.261 1.589,1.707 1.21,3.226c-0.378,1.52 -1.536,2.542 -2.583,2.281c-1.047,-0.261 -1.589,-1.707 -1.21,-3.227c0.379,-1.519 1.536,-2.541 2.583,-2.28Z" style="fill:#E49393;"/><path d="M14.761,4.042c-1.047,0.261 -1.596,1.677 -1.227,3.16c0.37,1.483 1.52,2.475 2.567,2.214c1.047,-0.261 1.597,-1.677 1.227,-3.16c-0.37,-1.483 -1.52,-2.475 -2.567,-2.214Z" style="fill:#E49393;"/><path d="M24,16l-7,0c0,0 0,0.403 0,1c0,2.761 2.239,5 5,5c0.597,0 1,0 1,0" style="fill:#E5E5E5;stroke:#585858;stroke-width:2px;stroke-linecap:butt;"/></g></svg>