<svg height="512pt" viewBox="0 0 512.016 512" width="512pt" xmlns="http://www.w3.org/2000/svg" fill="#fff"><path d="m240 426.675781h-181.332031c-32.363281 0-58.667969-26.304687-58.667969-58.667969v-309.332031c0-32.363281 26.304688-58.6679685 58.667969-58.6679685h309.332031c32.363281 0 58.667969 26.3046875 58.667969 58.6679685v181.332031c0 8.832032-7.167969 16-16 16s-16-7.167968-16-16v-181.332031c0-14.699219-11.96875-26.667969-26.667969-26.667969h-309.332031c-14.699219 0-26.667969 11.96875-26.667969 26.667969v309.332031c0 14.699219 11.96875 26.667969 26.667969 26.667969h181.332031c8.832031 0 16 7.167969 16 16s-7.167969 16-16 16zm0 0"/><path d="m496 512.007812h-138.667969c-8.832031 0-16-7.167968-16-16 0-8.832031 7.167969-16 16-16h122.667969v-122.667968c0-8.832032 7.167969-16 16-16s16 7.167968 16 16v138.667968c0 8.832032-7.167969 16-16 16zm0 0"/><path d="m496 512.007812c-4.097656 0-8.191406-1.558593-11.308594-4.691406l-181.332031-181.335937c-6.25-6.25-6.25-16.382813 0-22.632813s16.382813-6.25 22.636719 0l181.332031 181.332032c6.25 6.25 6.25 16.382812 0 22.636718-3.136719 3.132813-7.230469 4.691406-11.328125 4.691406zm0 0"/></svg>